<svg width="5345" height="5890" viewBox="0 0 5345 5890" fill="none" xmlns="http://www.w3.org/2000/svg">
<path fill-rule="evenodd" clip-rule="evenodd" d="M3976.6 1288.14C3888.2 1412.34 3831.81 1572.77 3842.12 1777.14C3869.75 2324.49 4225.53 2456.89 4494.12 2510.57C4764.62 2510.57 5085.12 2326.74 5161.12 2129.14C5256.12 1882.14 5043.12 1670.64 5043.12 1670.64C5043.12 1670.64 5158.12 1521.14 5043.12 1265.14C4977.1 1118.16 4888.12 1052.64 4606.12 1003.64C4380.52 964.435 4092.44 1176.97 3976.6 1288.14Z" fill="#EED8BE"/>
<path d="M5264.62 1582.64C5223.29 1099.39 4903.12 971.135 4764.62 924.135C4699.34 901.981 4583.29 924.153 4454.12 953.786C4297.63 1005.5 4103.91 1109.26 3976.6 1288.14C4092.44 1176.97 4380.52 964.435 4606.12 1003.64C4888.12 1052.64 4977.1 1118.16 5043.12 1265.14C5158.12 1521.14 5043.12 1670.64 5043.12 1670.64C5043.12 1670.64 5256.12 1882.14 5161.12 2129.14C5085.12 2326.74 4764.62 2510.57 4494.12 2510.57C4537.2 2519.18 4578.04 2525.76 4614.92 2531.71C4656.03 2538.33 4690.22 2578.17 4719.12 2585.14C5379.12 2189.64 5383.8 2098.03 5316.53 1848.46L5316.53 1848.46C5296.82 1775.33 5273.8 1689.93 5264.62 1582.64Z" fill="#C69965"/>
<path fill-rule="evenodd" clip-rule="evenodd" d="M4392.74 968.086C4386.37 969.581 4379.98 971.08 4373.59 972.579C4105.41 1037.86 3924.87 1182.17 3780.94 1297.23C3731.74 1336.56 3686.81 1372.47 3644.12 1400.64C3507.73 1490.64 3406.72 1880.47 3373.26 2064.14L4023.12 3306.64C4018.5 3259.97 4013.83 3212.76 4329.73 3058.14C4434.65 3006.78 4583.62 2710.14 4719.12 2585.14C4690.22 2578.17 4656.03 2538.33 4614.92 2531.71C4578.04 2525.76 4537.2 2519.18 4494.12 2510.57C4225.53 2456.89 3869.75 2324.49 3842.12 1777.14C3831.81 1572.77 3888.2 1412.34 3976.6 1288.14C4103.91 1109.26 4297.63 1005.5 4454.12 953.786C4433.94 958.417 4413.43 963.231 4392.74 968.086Z" fill="#C69965"/>
<path d="M3586.12 1139.14C3400.47 1209.88 3144.62 1394.64 3046.12 1500.64L3373.26 2064.14C3406.72 1880.47 3507.73 1490.64 3644.12 1400.64C3686.81 1372.47 3731.74 1336.56 3780.94 1297.23C3924.87 1182.17 4105.41 1037.86 4373.59 972.579C4251.65 1001.14 4125.15 1029.64 4023.12 1029.64C3927.12 1029.64 3844.62 1040.63 3586.12 1139.14Z" fill="#A7845C"/>
<path fill-rule="evenodd" clip-rule="evenodd" d="M4392.74 968.086C4386.37 969.581 4379.99 971.08 4373.59 972.579C4105.41 1037.86 3924.87 1182.17 3780.94 1297.23C3731.74 1336.56 3686.81 1372.47 3644.13 1400.64C3507.73 1490.64 3406.72 1880.47 3373.27 2064.14L4023.13 3306.64C4018.5 3259.97 4013.83 3212.76 4329.73 3058.14C4434.65 3006.78 4583.63 2710.14 4719.13 2585.14C4690.22 2578.17 4656.03 2538.33 4614.92 2531.71C4578.04 2525.76 4537.2 2519.18 4494.13 2510.57C4225.54 2456.89 3869.76 2324.49 3842.13 1777.14C3831.81 1572.77 3888.2 1412.34 3976.6 1288.14C4103.91 1109.26 4297.63 1005.5 4454.13 953.786C4433.94 958.417 4413.43 963.231 4392.74 968.086Z" fill="#C69965"/>
<path fill-rule="evenodd" clip-rule="evenodd" d="M3328.93 5185.37C3366.5 5182.46 3404.46 5178.39 3442.71 5173.2C4539.92 5024.08 5102.31 3901.44 4458.82 2890.02C3414.2 1248.11 1898.54 535.694 1118.67 966.551C858.463 1110.31 891.569 1574.36 1212.44 2057.96C1395.56 2333.94 1470.98 2563.14 1600.78 2957.57L1600.78 2957.57C1650.34 3108.19 1707.84 3282.91 1782.28 3493.53C1787.34 3507.83 1794.78 3530.38 1804.47 3559.77L1804.47 3559.77C1902.56 3857.22 2231.42 4854.5 2655.57 5074.22C2844.09 5171.88 3077.9 5204.74 3328.93 5185.37Z" fill="#A3EC46"/>
<path d="M1212.44 2057.96C891.569 1574.36 858.463 1110.31 1118.67 966.551C305.057 1353.4 928.232 4081.71 2062.4 4857.41C2632.96 5247.64 3076.09 5213.97 3328.93 5185.37C3077.9 5204.74 2844.09 5171.88 2655.57 5074.22C2231.42 4854.5 1902.56 3857.22 1804.47 3559.77L1804.47 3559.77C1794.78 3530.38 1787.34 3507.83 1782.28 3493.53C1707.84 3282.91 1650.34 3108.19 1600.78 2957.57L1600.78 2957.57C1470.98 2563.14 1395.56 2333.94 1212.44 2057.96Z" fill="#386010"/>
<path d="M2525.98 3998.97C2801.82 4498.26 3317.02 4524.62 3689.53 4318.82C2688.44 4216.67 2386.99 3052.52 2564.46 2686.92C2191.95 2892.72 2250.14 3499.68 2525.98 3998.97Z" fill="#68540A"/>
<path d="M3689.53 4318.82C4062.04 4113.02 4140.41 3541.43 3864.57 3042.14C3588.72 2542.86 2936.97 2481.12 2564.46 2686.92C2386.99 3052.52 2688.44 4216.67 3689.53 4318.82Z" fill="#9B8123"/>
<path fill-rule="evenodd" clip-rule="evenodd" d="M4497.41 1460.04C4490.49 1522.9 4526.05 1578.38 4576.83 1583.97C4664.86 1523.6 4628.28 1381.64 4601.88 1356.34C4551.1 1350.76 4504.33 1397.18 4497.41 1460.04Z" fill="black"/>
<path d="M4576.83 1583.97C4627.61 1589.56 4674.38 1543.13 4681.3 1480.27C4688.22 1417.42 4652.66 1361.93 4601.88 1356.34C4628.28 1381.64 4664.86 1523.6 4576.83 1583.97Z" fill="#706F6F"/>
<ellipse cx="4611.53" cy="1411.72" rx="24.5" ry="25" transform="rotate(20.7856 4611.53 1411.72)" fill="white"/>
<path fill-rule="evenodd" clip-rule="evenodd" d="M4712.08 2054.01C4750.78 2104.01 4814.91 2119.21 4855.31 2087.94C4876.66 1983.36 4751.72 1906.69 4715.15 1906.84C4674.75 1938.11 4673.37 2004 4712.08 2054.01Z" fill="black"/>
<path d="M4855.31 2087.94C4895.71 2056.67 4897.08 1990.78 4858.38 1940.77C4819.67 1890.77 4755.54 1875.57 4715.15 1906.84C4751.72 1906.69 4876.66 1983.36 4855.31 2087.94Z" fill="#706F6F"/>
<ellipse cx="4760.57" cy="1939.96" rx="24.5" ry="25" transform="rotate(-23.2328 4760.57 1939.96)" fill="white"/>
<path d="M4323.2 1990.78C4431.12 1990.78 4503.74 1935.63 4514.63 1911.64C4532.06 1873.23 4508.26 1790.35 4454.62 1741.14C4389.71 1681.59 4325.39 1799.48 4283.03 1859.54C4240.68 1919.61 4200.25 1935.24 4199.63 1950.14C4198.36 1980.66 4216.67 1990.78 4323.2 1990.78Z" fill="#C69965"/>
</svg>
